<svg width="26" height="25" viewBox="0 0 26 25" fill="none" xmlns="http://www.w3.org/2000/svg">
<g clip-path="url(#clip0_231_252)">
<path d="M12.5586 0.78125C6.08652 0.78125 0.839844 6.02793 0.839844 12.5C0.839844 18.9721 6.08652 24.2188 12.5586 24.2188C19.0307 24.2188 24.2773 18.9721 24.2773 12.5C24.2773 6.02793 19.0307 0.78125 12.5586 0.78125ZM19.7401 19.6815C17.9594 21.457 15.5814 22.5058 13.0696 22.6237C10.5578 22.7417 8.09203 21.9202 6.1528 20.3194C4.21357 18.7186 2.93978 16.4531 2.57963 13.9645C2.21949 11.4758 2.79878 8.94219 4.20465 6.85731C5.61051 4.77243 7.74223 3.28564 10.1844 2.68663C12.6266 2.08763 15.2044 2.41932 17.4154 3.61709C19.6264 4.81485 21.3123 6.79288 22.1445 9.16576C22.9768 11.5386 22.8958 14.1364 21.9173 16.4528C21.4074 17.6598 20.668 18.7563 19.7401 19.6815Z" fill="#CF605C"/>
<path d="M7.00777 11.7689L8.11265 12.8737L11.7773 9.20908V18.3594H13.3398V9.20908L17.0045 12.8737L18.1094 11.7689L12.5586 6.21811L7.00777 11.7689Z" fill="#CF605C"/>
</g>
<defs>
<clipPath id="clip0_231_252">
<rect width="25" height="25" fill="white" transform="translate(0.0585938)"/>
</clipPath>
</defs>
</svg>
