<svg width="9" height="16" viewBox="0 0 9 16" fill="none" xmlns="http://www.w3.org/2000/svg">
<path d="M6.17451 0.376373C6.28366 0.376373 6.38834 0.463744 6.46551 0.619266C6.54269 0.774788 6.58605 0.98572 6.58605 1.20566V2.03495H7.40914C7.61679 2.03482 7.8168 2.19285 7.96906 2.47737C8.12132 2.76189 8.21459 3.15187 8.23016 3.56913L8.23222 3.69352V13.645C8.23229 14.0634 8.15386 14.4664 8.01266 14.7733C7.87147 15.0801 7.67794 15.268 7.47087 15.2994L7.40914 15.3036H1.64755C1.43989 15.3037 1.23989 15.1457 1.08762 14.8611C0.935361 14.5766 0.842095 14.1866 0.826521 13.7694L0.824463 13.645V3.69352C0.824397 3.27509 0.902823 2.87206 1.04402 2.56524C1.18522 2.25842 1.37875 2.07048 1.58582 2.0391L1.64755 2.03495H2.47063V1.20566C2.47063 0.98572 2.51399 0.774788 2.59117 0.619266C2.66835 0.463744 2.77303 0.376373 2.88217 0.376373C2.99132 0.376373 3.096 0.463744 3.17318 0.619266C3.25036 0.774788 3.29372 0.98572 3.29372 1.20566V2.03495H5.76297V1.20566C5.76297 0.98572 5.80633 0.774788 5.88351 0.619266C5.96069 0.463744 6.06536 0.376373 6.17451 0.376373ZM5.69054 5.6664L3.94477 9.18424L3.36244 8.01163C3.28483 7.86057 3.18087 7.77698 3.07296 7.77887C2.96506 7.78076 2.86184 7.86797 2.78554 8.02173C2.70923 8.17549 2.66595 8.38348 2.66501 8.60092C2.66408 8.81835 2.70556 9.02783 2.78052 9.18424L3.65052 10.9382C3.68912 11.016 3.73496 11.0778 3.78542 11.1199C3.83587 11.1621 3.88995 11.1838 3.94457 11.1838C3.99919 11.1838 4.05327 11.1621 4.10372 11.1199C4.15418 11.0778 4.20001 11.016 4.23862 10.9382L6.27246 6.83901C6.31176 6.76251 6.34312 6.67101 6.36468 6.56983C6.38625 6.46865 6.39761 6.35984 6.39808 6.24972C6.39856 6.13961 6.38814 6.03041 6.36745 5.92849C6.34676 5.82658 6.3162 5.73399 6.27756 5.65612C6.23892 5.57826 6.19297 5.51668 6.14239 5.47498C6.09181 5.43329 6.03762 5.4123 5.98298 5.41326C5.92833 5.41422 5.87433 5.43709 5.82412 5.48056C5.77391 5.52402 5.7285 5.58719 5.69054 5.6664Z" fill="white"/>
</svg>
