<svg width="9" height="9" viewBox="0 0 9 9" fill="none" xmlns="http://www.w3.org/2000/svg">
<path d="M8.7534 4.49999C8.7534 6.76279 6.91904 8.59715 4.65624 8.59715C2.39344 8.59715 0.559082 6.76279 0.559082 4.49999C0.559082 2.23719 2.39344 0.402832 4.65624 0.402832C6.91904 0.402832 8.7534 2.23719 8.7534 4.49999ZM4.18232 6.6694L7.22215 3.62957C7.32537 3.52635 7.32537 3.35898 7.22215 3.25576L6.84833 2.88194C6.74511 2.7787 6.57774 2.7787 6.4745 2.88194L3.99541 5.36102L2.83798 4.20359C2.73476 4.10037 2.56738 4.10037 2.46414 4.20359L2.09033 4.57741C1.98711 4.68063 1.98711 4.848 2.09033 4.95122L3.80849 6.66938C3.91173 6.77262 4.07909 6.77262 4.18232 6.6694Z" fill="#0074DE"/>
</svg>
